<?xml version="1.0" standalone="no"?><!DOCTYPE svg PUBLIC "-//W3C//DTD SVG 1.1//EN" "http://www.w3.org/Graphics/SVG/1.1/DTD/svg11.dtd"><svg class="icon" width="64px" height="63.94px" viewBox="0 0 1025 1024" version="1.1" xmlns="http://www.w3.org/2000/svg"><path d="M437.44 611.114667c-7.253333 5.290667-8.746667 15.424-4.778667 21.717333 3.797333 6.464 12.586667 7.210667 19.818667 1.813333 7.018667-5.568 9.728-15.232 5.930667-21.696-3.776-6.272-12.586667-8.106667-20.970667-1.834666z" fill="#FB6622" /><path d="M897.92 0h-768a128 128 0 0 0-128 128v768a128 128 0 0 0 128 128h768a128 128 0 0 0 128-128V128a128 128 0 0 0-128-128z m-155.754667 659.392c-46.549333 99.178667-200.128 147.434667-313.898666 138.474667-108.16-8.490667-247.210667-44.544-261.568-175.744 0 0-7.637333-59.413333 49.834666-136.341334 0 0 82.666667-115.712 178.922667-148.757333 96.384-32.853333 107.584 22.762667 107.584 55.637333-5.098667 27.904-14.698667 44.288 21.482667 33.024 0 0 94.72-44.032 133.696-4.970666 31.466667 31.552 5.205333 74.922667 5.205333 74.922666s-13.034667 14.485333 13.76 19.669334c26.944 5.44 111.573333 44.757333 64.981333 144.085333z m-93.376-274.005333a18.602667 18.602667 0 0 1-18.581333-18.624c0-10.432 8.298667-18.794667 18.581333-18.794667 0 0 116.117333-21.525333 102.250667 103.552a7.552 7.552 0 0 1-0.256 1.984 18.517333 18.517333 0 0 1-18.24 15.616 18.645333 18.645333 0 0 1-18.752-18.602667c0 0.021333 18.410667-83.584-65.002667-65.130666z m196.288 100.032h-0.170666c-3.114667 21.162667-13.568 22.869333-26.069334 22.869333-14.890667 0-26.986667-9.408-26.986666-24.426667 0-12.949333 5.376-26.176 5.376-26.176 1.536-5.461333 14.165333-39.424-8.341334-90.154666-41.344-69.525333-124.458667-70.549333-134.293333-66.581334-9.92 3.882667-24.490667 5.845333-24.490667 5.845334-15.04 0-27.093333-12.266667-27.093333-27.157334 0-12.501333 8.298667-23.104 19.754667-26.325333 0 0 0.256-0.426667 0.618666-0.490667 0.810667-0.170667 1.664-1.002667 2.538667-1.088 11.584-2.218667 52.885333-10.346667 92.992-0.917333 71.914667 16.832 170.496 86.442667 126.165333 234.602667z" fill="#FB6622" /><path d="M436.693333 492.245333c-112.981333 5.248-204.288 65.92-204.288 141.568 0 75.584 91.306667 132.373333 204.288 127.082667 113.024-5.141333 204.522667-76.053333 204.522667-151.637333 0-75.498667-91.498667-122.218667-204.522667-117.013334z m76.928 190.336c-34.624 44.8-103.061333 66.624-169.514666 30.549334-31.616-17.216-30.464-51.008-30.464-51.008s-13.12-106.709333 100.48-120.042667c113.792-13.226667 134.08 95.701333 99.498666 140.501333z" fill="#FB6622" /><path d="M383.594667 625.792c-21.226667 2.218667-36.416 20.8-36.416 38.506667 0 17.792 17.109333 30.037333 38.314666 27.541333 21.141333-2.368 38.336-18.752 38.336-36.501333 0-17.792-15.872-31.872-40.234666-29.546667z" fill="#FB6622" /></svg>