<?xml version="1.0" standalone="no"?><!DOCTYPE svg PUBLIC "-//W3C//DTD SVG 1.1//EN" "http://www.w3.org/Graphics/SVG/1.1/DTD/svg11.dtd"><svg class="icon" width="64px" height="64.00px" viewBox="0 0 1024 1024" version="1.1" xmlns="http://www.w3.org/2000/svg"><path d="M561.92 551.936a32.256 32.256 0 1 0 64.512 0 32.256 32.256 0 0 0-64.512 0zM474.6752 374.1696a39.424 39.424 0 1 0 78.9504 0 39.424 39.424 0 0 0-78.9504 0zM303.7184 374.1696a39.424 39.424 0 1 0 78.9504 0 39.424 39.424 0 0 0-78.9504 0zM723.4048 551.936a32.256 32.256 0 1 0 64.512 0 32.256 32.256 0 0 0-64.512 0z" fill="#52BD33" /><path d="M868.096 0H155.904A155.8528 155.8528 0 0 0 0 155.904v712.192A155.8528 155.8528 0 0 0 155.8528 1024h712.2432A155.904 155.904 0 0 0 1024 868.096V155.904A155.904 155.904 0 0 0 868.096 0zM422.6048 672.9728c-32.6144 0-58.88-6.656-91.5456-13.1584l-91.3408 45.824 26.112-78.592C200.448 581.3248 161.28 522.3936 161.28 450.56c0-124.3136 117.6576-222.2592 261.3248-222.2592 128.4608 0 241.0496 78.2336 263.68 183.5008a226.2016 226.2016 0 0 0-25.1904-1.536c-124.16 0-222.208 92.672-222.208 206.848 0.1024 18.5856 2.8672 37.0176 8.1408 54.784a308.224 308.224 0 0 1-24.4224 1.024z m385.4848 91.5456l19.6608 65.2288-71.68-39.2704c-26.112 6.5536-52.4288 13.1584-78.4384 13.1584-124.3136 0-222.2592-84.992-222.2592-189.696 0-104.448 97.9456-189.5936 222.2592-189.5936 117.4016 0 221.952 85.1456 221.952 189.5936 0 59.0336-39.0656 111.2064-91.4944 150.528z" fill="#52BD33" /></svg>